<mxfile host="app.diagrams.net" agent="Mozilla/5.0 (X11; Linux x86_64; rv:135.0) Gecko/20100101 Firefox/135.0" version="26.0.14">
  <diagram name="Page-1" id="sMocpuGF57ic_efmI0IQ">
    <mxGraphModel>
      <root>
        <mxCell id="0" />
        <mxCell id="1" parent="0" />
        <mxCell id="2" value="Phase 3" style="whiteSpace=wrap;strokeWidth=2;" vertex="1" parent="1">
          <mxGeometry x="379" y="8" width="135" height="738" as="geometry" />
        </mxCell>
        <mxCell id="3" value="Phase 2" style="whiteSpace=wrap;strokeWidth=2;" vertex="1" parent="1">
          <mxGeometry x="193" y="27" width="135" height="692" as="geometry" />
        </mxCell>
        <mxCell id="4" value="Phase 1" style="whiteSpace=wrap;strokeWidth=2;" vertex="1" parent="1">
          <mxGeometry x="8" y="105" width="135" height="536" as="geometry" />
        </mxCell>
        <mxCell id="5" value="Member 1" style="ellipse;aspect=fixed;strokeWidth=2;whiteSpace=wrap;" vertex="1" parent="1">
          <mxGeometry x="33" y="200" width="85" height="85" as="geometry" />
        </mxCell>
        <mxCell id="6" value="Member 2" style="ellipse;aspect=fixed;strokeWidth=2;whiteSpace=wrap;" vertex="1" parent="1">
          <mxGeometry x="33" y="335" width="85" height="85" as="geometry" />
        </mxCell>
        <mxCell id="7" value="Member 3" style="ellipse;aspect=fixed;strokeWidth=2;whiteSpace=wrap;" vertex="1" parent="1">
          <mxGeometry x="33" y="470" width="85" height="85" as="geometry" />
        </mxCell>
        <mxCell id="8" value="Member 4" style="ellipse;aspect=fixed;strokeWidth=2;whiteSpace=wrap;" vertex="1" parent="1">
          <mxGeometry x="218" y="180" width="85" height="85" as="geometry" />
        </mxCell>
        <mxCell id="9" value="Member 5" style="ellipse;aspect=fixed;strokeWidth=2;whiteSpace=wrap;" vertex="1" parent="1">
          <mxGeometry x="218" y="345" width="85" height="85" as="geometry" />
        </mxCell>
        <mxCell id="10" value="Member 6" style="ellipse;aspect=fixed;strokeWidth=2;whiteSpace=wrap;" vertex="1" parent="1">
          <mxGeometry x="218" y="500" width="85" height="85" as="geometry" />
        </mxCell>
        <mxCell id="11" value="Member 7" style="ellipse;aspect=fixed;strokeWidth=2;whiteSpace=wrap;" vertex="1" parent="1">
          <mxGeometry x="404" y="44" width="85" height="85" as="geometry" />
        </mxCell>
        <mxCell id="12" value="Member 8" style="ellipse;aspect=fixed;strokeWidth=2;whiteSpace=wrap;" vertex="1" parent="1">
          <mxGeometry x="404" y="335" width="85" height="85" as="geometry" />
        </mxCell>
        <mxCell id="13" value="Member 9" style="ellipse;aspect=fixed;strokeWidth=2;whiteSpace=wrap;" vertex="1" parent="1">
          <mxGeometry x="404" y="626" width="85" height="85" as="geometry" />
        </mxCell>
        <mxCell id="14" value="" style="curved=1;startArrow=none;endArrow=block;exitX=0.89;exitY=0;entryX=0.01;entryY=0;" edge="1" parent="1" source="5" target="8">
          <mxGeometry relative="1" as="geometry">
            <Array as="points">
              <mxPoint x="143" y="155" />
              <mxPoint x="193" y="155" />
            </Array>
          </mxGeometry>
        </mxCell>
        <mxCell id="15" value="" style="curved=1;startArrow=none;endArrow=block;exitX=0.94;exitY=1;entryX=0.01;entryY=0;" edge="1" parent="1" source="5" target="9">
          <mxGeometry relative="1" as="geometry">
            <Array as="points">
              <mxPoint x="143" y="320" />
              <mxPoint x="193" y="320" />
            </Array>
          </mxGeometry>
        </mxCell>
        <mxCell id="16" value="" style="curved=1;startArrow=none;endArrow=block;exitX=0.66;exitY=1;entryX=0.07;entryY=0.01;" edge="1" parent="1" source="5" target="10">
          <mxGeometry relative="1" as="geometry">
            <Array as="points">
              <mxPoint x="143" y="465" />
              <mxPoint x="193" y="465" />
            </Array>
          </mxGeometry>
        </mxCell>
        <mxCell id="17" value="" style="curved=1;startArrow=none;endArrow=block;exitX=0.74;exitY=0;entryX=0.01;entryY=0.57;" edge="1" parent="1" source="6" target="8">
          <mxGeometry relative="1" as="geometry">
            <Array as="points">
              <mxPoint x="143" y="232" />
              <mxPoint x="193" y="232" />
            </Array>
          </mxGeometry>
        </mxCell>
        <mxCell id="18" value="" style="curved=1;startArrow=none;endArrow=block;exitX=1.01;exitY=0.58;entryX=0.01;entryY=0.5;" edge="1" parent="1" source="6" target="9">
          <mxGeometry relative="1" as="geometry">
            <Array as="points">
              <mxPoint x="143" y="388" />
            </Array>
          </mxGeometry>
        </mxCell>
        <mxCell id="19" value="" style="curved=1;startArrow=none;endArrow=block;exitX=0.71;exitY=1.01;entryX=0.01;entryY=0.51;" edge="1" parent="1" source="6" target="10">
          <mxGeometry relative="1" as="geometry">
            <Array as="points">
              <mxPoint x="143" y="543" />
            </Array>
          </mxGeometry>
        </mxCell>
        <mxCell id="20" value="" style="curved=1;startArrow=none;endArrow=block;exitX=0.66;exitY=0.01;entryX=0.07;entryY=1;" edge="1" parent="1" source="7" target="8">
          <mxGeometry relative="1" as="geometry">
            <Array as="points">
              <mxPoint x="143" y="300" />
              <mxPoint x="193" y="300" />
            </Array>
          </mxGeometry>
        </mxCell>
        <mxCell id="21" value="" style="curved=1;startArrow=none;endArrow=block;exitX=1.01;exitY=0.01;entryX=0.01;entryY=0.93;" edge="1" parent="1" source="7" target="9">
          <mxGeometry relative="1" as="geometry">
            <Array as="points">
              <mxPoint x="143" y="445" />
              <mxPoint x="193" y="445" />
            </Array>
          </mxGeometry>
        </mxCell>
        <mxCell id="22" value="" style="curved=1;startArrow=none;endArrow=block;exitX=0.82;exitY=1.01;entryX=0.07;entryY=1.01;" edge="1" parent="1" source="7" target="10">
          <mxGeometry relative="1" as="geometry">
            <Array as="points">
              <mxPoint x="143" y="621" />
              <mxPoint x="193" y="621" />
            </Array>
          </mxGeometry>
        </mxCell>
        <mxCell id="23" value="" style="curved=1;startArrow=none;endArrow=block;exitX=0.73;exitY=0;entryX=0;entryY=0.36;" edge="1" parent="1" source="8" target="11">
          <mxGeometry relative="1" as="geometry">
            <Array as="points">
              <mxPoint x="329" y="67" />
              <mxPoint x="379" y="67" />
            </Array>
          </mxGeometry>
        </mxCell>
        <mxCell id="24" value="" style="curved=1;startArrow=none;endArrow=block;exitX=1.01;exitY=0.07;entryX=0.34;entryY=0;" edge="1" parent="1" source="8" target="12">
          <mxGeometry relative="1" as="geometry">
            <Array as="points">
              <mxPoint x="329" y="165" />
              <mxPoint x="379" y="165" />
            </Array>
          </mxGeometry>
        </mxCell>
        <mxCell id="25" value="" style="curved=1;startArrow=none;endArrow=block;exitX=0.6;exitY=1;entryX=0;entryY=0.07;" edge="1" parent="1" source="8" target="13">
          <mxGeometry relative="1" as="geometry">
            <Array as="points">
              <mxPoint x="329" y="611" />
              <mxPoint x="379" y="611" />
            </Array>
          </mxGeometry>
        </mxCell>
        <mxCell id="26" value="" style="curved=1;startArrow=none;endArrow=block;exitX=0.64;exitY=0;entryX=0;entryY=0.78;" edge="1" parent="1" source="9" target="11">
          <mxGeometry relative="1" as="geometry">
            <Array as="points">
              <mxPoint x="329" y="125" />
              <mxPoint x="379" y="125" />
            </Array>
          </mxGeometry>
        </mxCell>
        <mxCell id="27" value="" style="curved=1;startArrow=none;endArrow=block;exitX=1.01;exitY=0.43;entryX=0;entryY=0.5;" edge="1" parent="1" source="9" target="12">
          <mxGeometry relative="1" as="geometry">
            <Array as="points">
              <mxPoint x="329" y="378" />
            </Array>
          </mxGeometry>
        </mxCell>
        <mxCell id="28" value="" style="curved=1;startArrow=none;endArrow=block;exitX=0.65;exitY=1.01;entryX=0;entryY=0.22;" edge="1" parent="1" source="9" target="13">
          <mxGeometry relative="1" as="geometry">
            <Array as="points">
              <mxPoint x="329" y="631" />
              <mxPoint x="379" y="631" />
            </Array>
          </mxGeometry>
        </mxCell>
        <mxCell id="29" value="" style="curved=1;startArrow=none;endArrow=block;exitX=0.59;exitY=0.01;entryX=0;entryY=0.93;" edge="1" parent="1" source="10" target="11">
          <mxGeometry relative="1" as="geometry">
            <Array as="points">
              <mxPoint x="329" y="145" />
              <mxPoint x="379" y="145" />
            </Array>
          </mxGeometry>
        </mxCell>
        <mxCell id="30" value="" style="curved=1;startArrow=none;endArrow=block;exitX=1.01;exitY=0.86;entryX=0.34;entryY=1.01;" edge="1" parent="1" source="10" target="12">
          <mxGeometry relative="1" as="geometry">
            <Array as="points">
              <mxPoint x="329" y="591" />
              <mxPoint x="379" y="591" />
            </Array>
          </mxGeometry>
        </mxCell>
        <mxCell id="31" value="" style="curved=1;startArrow=none;endArrow=block;exitX=0.74;exitY=1.01;entryX=0;entryY=0.65;" edge="1" parent="1" source="10" target="13">
          <mxGeometry relative="1" as="geometry">
            <Array as="points">
              <mxPoint x="329" y="689" />
              <mxPoint x="379" y="689" />
            </Array>
          </mxGeometry>
        </mxCell>
      </root>
    </mxGraphModel>
  </diagram>
</mxfile>
